HIERARCHY
ROOT hip
{
	OFFSET 0.000000 0.000000 0.000000 
	CHANNELS 6 Xposition Yposition Zposition Xrotation Zrotation Yrotation
	JOINT abdomen
	{
		OFFSET 0.000000 3.402643 0.000000 
		CHANNELS 3 Xrotation Zrotation Yrotation
		JOINT chest
		{
			OFFSET 0.000000 8.438565 -0.680529 
			CHANNELS 3 Xrotation Zrotation Yrotation
			JOINT neck
			{
				OFFSET 0.000000 10.207942 -0.272212 
				CHANNELS 3 Xrotation Zrotation Yrotation
				JOINT head
				{
					OFFSET 0.000000 3.130431 0.000000 
					CHANNELS 3 Xrotation Zrotation Yrotation
					End Site
					{
						OFFSET 0.000000 3.130435 0.000000 
					}
				}
			}
			JOINT lCollar
			{
				OFFSET 3.470700 6.669187 -0.816635 
				CHANNELS 3 Yrotation Zrotation Xrotation
				JOINT lShldr
				{
					OFFSET 3.198488 0.000000 0.000000 
					CHANNELS 3 Zrotation Yrotation Xrotation
					JOINT lForeArm
					{
						OFFSET 10.139888 0.000000 0.000000 
						CHANNELS 3 Yrotation Zrotation Xrotation
						JOINT lHand
						{
							OFFSET 8.370511 0.000000 0.000000 
							CHANNELS 3 Zrotation Yrotation Xrotation
							End Site
							{
								OFFSET 4.083176 0.000000 0.000000 
							}
						}
					}
				}
			}
			JOINT rCollar
			{
				OFFSET -3.470700 6.669187 -0.816635 
				CHANNELS 3 Yrotation Zrotation Xrotation
				JOINT rShldr
				{
					OFFSET -3.198488 0.000000 0.000000 
					CHANNELS 3 Zrotation Yrotation Xrotation
					JOINT rForeArm
					{
						OFFSET -10.139888 0.000000 0.000000 
						CHANNELS 3 Yrotation Zrotation Xrotation
						JOINT rHand
						{
							OFFSET -8.370511 0.000000 0.000000 
							CHANNELS 3 Zrotation Yrotation Xrotation
							End Site
							{
								OFFSET -4.083176 0.000000 0.000000 
							}
						}
					}
				}
			}
		}
	}
	JOINT lThigh
	{
		OFFSET 5.308129 -1.633274 1.361059 
		CHANNELS 3 Xrotation Zrotation Yrotation
		JOINT lShin
		{
			OFFSET -2.041588 -20.007561 0.000000 
			CHANNELS 3 Xrotation Zrotation Yrotation
			JOINT lFoot
			{
				OFFSET 0.000000 -19.190928 -1.224953 
				CHANNELS 3 Xrotation Yrotation Zrotation
				End Site
				{
					OFFSET 0.000000 -2.449906 4.627600 
				}
			}
		}
	}
	JOINT rThigh
	{
		OFFSET -5.308129 -1.633274 1.361059 
		CHANNELS 3 Xrotation Zrotation Yrotation
		JOINT rShin
		{
			OFFSET 2.041588 -20.007561 0.000000 
			CHANNELS 3 Xrotation Zrotation Yrotation
			JOINT rFoot
			{
				OFFSET 0.000000 -19.190928 -1.224953 
				CHANNELS 3 Xrotation Yrotation Zrotation
				End Site
				{
					OFFSET 0.000000 -2.449906 4.627600 
				}
			}
		}
	}
}
MOTION
Frames: 20
Frame Time: 0.011111
-1.570507 53.348965 17.707676 1.846782 -1.415748 -5.771497 3.757094 -0.278482 3.734676 -8.927420 0.400382 1.068094 -13.725597 -2.872962 -1.528251 32.670250 7.191842 -1.977473 -1.896031 -0.900906 0.061420 -76.682533 -18.534891 29.904707 -58.922607 9.704612 10.907815 6.992188 16.005859 -45.915276 5.164488 -1.441709 -0.481386 77.570465 6.883541 20.151455 64.730217 -10.183964 13.493706 -7.001954 -15.996095 23.974611 -2.224910 8.316058 -5.272549 23.925663 -5.289562 -1.710253 -38.995529 5.652526 6.761370 -2.411814 -22.318928 -3.020797 3.503801 5.034270 -0.024803 -5.287112 0.781073 0.754087 
-1.566776 53.349270 17.705500 1.895316 -1.332755 -5.770104 3.639342 -0.372417 3.747851 -8.927415 0.430084 1.076548 -13.657185 -2.868668 -1.563169 32.628239 7.188901 -2.045940 -1.896031 -0.900906 0.061420 -76.805031 -18.423298 29.072868 -59.158249 9.736833 11.017835 6.992188 16.005859 -47.458244 5.164488 -1.441709 -0.481386 77.586067 6.826215 20.141302 64.741096 -10.184706 13.504126 -7.001954 -15.996095 24.042969 -2.254214 8.238008 -5.331720 23.875725 -5.289333 -1.718042 -39.018517 5.763958 6.816372 -2.411818 -22.318928 -3.020798 3.503795 5.034275 -0.024802 -5.287603 0.778668 0.752958 
-1.564910 53.348965 17.699286 1.905085 -1.312902 -5.750160 3.599828 -0.408807 3.745381 -8.966469 0.411307 1.077136 -13.568804 -2.830727 -1.587134 32.596207 7.156125 -2.095357 -1.896031 -0.900906 0.061420 -76.879547 -18.299686 28.303444 -59.423889 9.764640 11.123710 6.992188 16.005859 -48.971920 5.164488 -1.441709 -0.481386 77.630653 6.771803 20.101851 64.728630 -10.179796 13.485015 -7.001954 -15.996095 24.042969 -2.275146 8.212474 -5.381263 23.874712 -5.293248 -1.699384 -39.010670 5.803290 6.858285 -2.411820 -22.318928 -3.020799 3.503801 5.034270 -0.024803 -5.286293 0.785062 0.755962 
-1.564600 53.347721 17.692757 1.866219 -1.287852 -5.738545 3.628187 -0.458494 3.761697 -9.015288 0.402469 1.077234 -13.499718 -2.771970 -1.604886 32.565571 7.119521 -2.112201 -1.896031 -0.900906 0.061420 -76.972435 -18.196489 27.481825 -59.670433 9.796332 11.234918 6.992188 16.005859 -50.485588 5.164488 -1.441709 -0.481386 77.674255 6.727106 20.080776 64.719345 -10.183219 13.493056 -7.001954 -15.996095 24.042969 -2.197006 8.192739 -5.386022 23.814480 -5.292900 -1.677538 -38.980530 5.821271 6.834793 -2.411813 -22.318928 -3.020797 3.503798 5.034272 -0.024803 -5.286272 0.785167 0.756010 
-1.548746 53.344612 17.726952 1.807777 -1.331213 -5.787268 3.529714 -0.323861 3.818931 -8.898095 0.313318 1.101428 -13.546199 -2.562104 -1.642780 32.746353 6.737263 -2.223198 -1.896031 -0.900906 0.061420 -77.062805 -18.142067 26.721846 -59.830620 9.814304 11.312449 6.992188 16.005859 -51.911369 5.164488 -1.441709 -0.481386 77.588280 6.708653 20.290461 64.623009 -10.180547 13.445350 -7.001954 -15.996095 24.277346 -2.040367 8.152550 -5.571564 23.754417 -5.292670 -1.675203 -39.240330 5.890357 6.984358 -2.411818 -22.318924 -3.020798 3.503797 5.034273 -0.024802 -5.286721 0.779005 0.763894 
-1.773504 53.455280 17.412352 3.167909 -0.824985 -3.645000 2.941784 -1.777086 2.020733 -9.846332 1.347331 0.584557 -13.591145 -2.169341 -1.755757 33.078995 6.002589 -2.538050 -1.896031 -0.900906 0.061420 -77.218468 -17.953827 25.189497 -60.279602 9.863397 11.506667 6.992188 16.005859 -54.938717 5.164488 -1.441709 -0.481386 77.514938 6.662025 20.576752 64.428658 -10.170259 13.351218 -7.001954 -15.996095 24.658201 -4.712994 8.704969 -3.426431 23.675343 -5.288408 -1.690749 -34.977379 5.302964 5.172678 -2.411816 -22.318930 -3.020798 3.503798 5.034272 -0.024803 -5.288288 0.775327 0.751389 
-1.793710 53.459320 17.431936 3.236140 -0.733990 -3.621511 2.756853 -1.967665 1.977446 -9.729270 1.462550 0.570721 -13.755675 -2.003402 -1.789473 33.301285 5.599939 -2.672923 -1.896031 -0.900906 0.061420 -77.246574 -17.974703 25.159769 -60.279602 9.863397 11.506667 6.992188 16.005859 -55.007072 5.164488 -1.441709 -0.481386 77.460693 6.715472 20.704508 64.321342 -10.165978 13.303081 -7.001954 -15.996095 24.804688 -4.733155 8.627947 -3.483373 23.625294 -5.288146 -1.688792 -34.969028 5.298757 5.157234 -2.411818 -22.318928 -3.020798 3.503798 5.034273 -0.024802 -5.285785 0.787531 0.757122 
-1.790290 53.458389 17.429138 3.236259 -0.755144 -3.593366 2.757217 -1.916420 1.931079 -9.729268 1.451660 0.551793 -13.784913 -1.999617 -1.769171 33.330688 5.565315 -2.637412 -1.896031 -0.900906 0.061420 -77.295082 -17.976980 25.071157 -60.268639 9.861360 11.496639 6.992188 16.005859 -55.085197 5.164488 -1.441709 -0.481386 77.440376 6.723249 20.734577 64.310448 -10.165110 13.302461 -7.001954 -15.996095 24.814455 -4.702418 8.645014 -3.531116 23.551718 -5.302864 -1.659096 -34.943428 5.269976 5.146170 -2.411814 -22.318932 -3.020797 3.503795 5.034273 -0.024802 -5.296486 0.783811 0.755470 
-1.788114 53.458694 17.427275 3.216792 -0.747166 -3.582809 2.805344 -1.905350 1.929776 -9.904982 1.365622 0.552737 -13.706651 -1.980669 -1.786828 33.418812 5.587997 -2.651128 -1.896031 -0.900906 0.061420 -77.235268 -17.817732 25.111238 -60.257671 9.859319 11.486613 6.992188 16.005859 -55.114494 5.164488 -1.441709 -0.481386 77.503517 6.582355 20.715364 64.299553 -10.164238 13.292074 -7.001954 -15.996095 24.824219 -4.686609 8.631456 -3.548617 23.521679 -5.302700 -1.657919 -34.944626 5.267845 5.133004 -2.411816 -22.318928 -3.020797 3.503795 5.034275 -0.024802 -5.285461 0.789102 0.757860 
-1.786249 53.459942 17.425098 3.207037 -0.738025 -3.582134 2.891213 -1.877430 2.016499 -10.285677 1.195888 0.584844 -13.520944 -1.953537 -1.830513 33.536842 5.674014 -2.701030 -1.896031 -0.900906 0.061420 -77.106857 -17.479265 25.226807 -60.290573 9.865430 11.506931 6.992188 16.005859 -55.173088 5.164488 -1.441709 -0.481386 77.711082 6.269480 20.565180 64.322914 -10.170209 13.311744 -7.001954 -15.996095 24.824219 -4.665684 8.609725 -3.585758 23.513641 -5.293348 -1.655595 -34.969780 5.299212 5.145964 -2.411818 -22.318928 -3.020798 3.503793 5.034274 -0.024802 -5.286069 0.786139 0.756468 
-1.786871 53.459011 17.422611 3.226455 -0.725956 -3.601336 2.919218 -1.879573 2.094349 -10.461363 1.111399 0.606906 -13.423112 -1.926610 -1.860659 33.586227 5.722698 -2.723289 -1.896031 -0.900906 0.061420 -77.069397 -17.262403 25.367199 -60.664059 9.901024 11.668306 6.992188 16.005859 -55.710194 5.164488 -1.441709 -0.481386 77.843887 6.115970 20.445484 64.354012 -10.168563 13.324479 -7.001954 -15.996095 24.814455 -4.677566 8.603342 -3.585982 23.513645 -5.293347 -1.655595 -34.987228 5.308184 5.165647 -2.411815 -22.318928 -3.020797 3.503799 5.034271 -0.024803 -5.285141 0.786665 0.767492 
-1.788736 53.458389 17.420433 3.236140 -0.733990 -3.621511 2.899166 -1.900160 2.123235 -10.451567 1.092507 0.618223 -13.393739 -1.916207 -1.864212 33.566475 5.742495 -2.745565 -1.896031 -0.900906 0.061420 -77.060188 -17.252193 25.367346 -60.803627 9.916273 11.736997 6.992188 16.005859 -55.934807 5.164488 -1.441709 -0.481386 77.892220 6.120832 20.404510 64.344696 -10.171932 13.322755 -7.001954 -15.996095 24.785158 -4.686107 8.620893 -3.577581 23.503628 -5.293294 -1.655203 -35.008278 5.301080 5.161890 -2.411818 -22.318928 -3.020798 3.503797 5.034273 -0.024802 -5.285785 0.787532 0.757122 
-1.788114 53.459633 17.419502 3.236175 -0.734541 -3.611761 2.898530 -1.902256 2.162329 -10.431987 1.053331 0.621354 -13.364321 -1.898556 -1.879512 33.518818 5.793839 -2.743072 -1.896031 -0.900906 0.061420 -77.021362 -17.250372 25.397230 -60.814590 9.918159 11.737309 6.992188 16.005859 -55.934807 5.164488 -1.441709 -0.481386 77.959892 6.127642 20.353018 64.354012 -10.168563 13.324479 -7.001954 -15.996095 24.746094 -4.685513 8.610195 -3.587000 23.503628 -5.293292 -1.655202 -35.023319 5.328710 5.183881 -2.411818 -22.318928 -3.020798 3.503798 5.034273 -0.024802 -5.285132 0.786713 0.767515 
-1.785316 53.459942 17.419811 3.236196 -0.715592 -3.600907 2.878369 -1.932361 2.180979 -10.402648 1.024474 0.633689 -13.364172 -1.879553 -1.884022 33.490181 5.814579 -2.743028 -1.896031 -0.900906 0.061420 -76.991249 -17.268515 25.436733 -60.803627 9.916273 11.736997 6.992188 16.005859 -55.944572 5.164488 -1.441709 -0.481386 78.016907 6.143197 20.281332 64.354012 -10.168563 13.324479 -7.001954 -15.996095 24.707031 -4.683637 8.577943 -3.595711 23.503630 -5.293294 -1.655203 -35.013546 5.327895 5.182512 -2.411817 -22.318930 -3.020798 3.503795 5.034275 -0.024802 -5.285803 0.787435 0.757076 
-1.782829 53.459320 17.418259 3.265465 -0.704559 -3.590965 2.858284 -1.953156 2.209824 -10.383104 1.014516 0.634719 -13.354316 -1.864754 -1.907956 33.439304 5.786040 -2.782548 -1.896031 -0.900906 0.061420 -76.989738 -17.297775 25.456261 -60.781696 9.912491 11.726604 6.992188 16.005859 -55.905510 5.164488 -1.441709 -0.481386 78.033272 6.174294 20.241512 64.343124 -10.167704 13.314091 -7.001954 -15.996095 24.687500 -4.703303 8.578159 -3.567631 23.503632 -5.293294 -1.655203 -35.017944 5.302529 5.163692 -2.411814 -22.318930 -3.020797 3.503800 5.034271 -0.024803 -5.286538 0.779894 0.764313 
-1.782829 53.459633 17.415462 3.275191 -0.722888 -3.601952 2.877964 -1.933970 2.210259 -10.392863 1.015308 0.644288 -13.364081 -1.865063 -1.907536 33.437878 5.751955 -2.800177 -1.896031 -0.900906 0.061420 -77.008652 -17.308441 25.465729 -60.761261 9.913466 11.713166 6.992188 16.005859 -55.846916 5.164488 -1.441709 -0.481386 78.022614 6.183035 20.271189 64.343124 -10.167704 13.314091 -7.001954 -15.996095 24.785158 -4.711966 8.595930 -3.588551 23.503630 -5.293294 -1.655203 -35.005360 5.317935 5.174413 -2.411818 -22.318928 -3.020798 3.503794 5.034273 -0.024802 -5.285865 0.787138 0.756937 
-1.784384 53.460258 17.414839 3.255711 -0.743615 -3.602817 2.897660 -1.924537 2.210206 -10.402640 1.025159 0.643430 -13.364081 -1.865063 -1.907536 33.446575 5.712734 -2.809865 -1.896031 -0.900906 0.061420 -77.028557 -17.299595 25.445904 -60.770733 9.910596 11.714848 6.992188 16.005859 -55.827385 5.164488 -1.441709 -0.481386 78.014923 6.162630 20.330162 64.375793 -10.170269 13.337218 -7.001954 -15.996095 24.892578 -4.693626 8.617328 -3.627112 23.483698 -5.293206 -1.664167 -34.990982 5.334017 5.208675 -2.411813 -22.318928 -3.020797 3.503795 5.034275 -0.024802 -5.285269 0.786060 0.767208 
-1.784073 53.460564 17.414217 3.245929 -0.743676 -3.612441 2.907423 -1.924921 2.209931 -10.392874 1.025050 0.643605 -13.315476 -1.892027 -1.902897 33.389725 5.776230 -2.792191 -1.896031 -0.900906 0.061420 -77.029060 -17.289843 25.465439 -60.770733 9.910596 11.714848 6.992188 16.005859 -55.798088 5.164488 -1.441709 -0.481386 78.026581 6.144172 20.310251 64.406883 -10.168584 13.340196 -7.001954 -15.996095 24.843748 -4.685729 8.610545 -3.635864 23.483698 -5.293204 -1.664166 -35.019283 5.342241 5.216151 -2.411817 -22.318930 -3.020798 3.503796 5.034272 -0.024803 -5.285196 0.786405 0.767370 
-1.781586 53.461494 17.413284 3.255641 -0.742506 -3.622317 2.907167 -1.925823 2.219678 -10.363564 1.014978 0.644807 -13.276713 -1.928812 -1.895634 33.294556 5.864550 -2.766712 -1.896031 -0.900906 0.061420 -77.037262 -17.319559 25.475052 -60.739330 9.909661 11.702784 6.992188 16.005859 -55.788322 5.164488 -1.441709 -0.481386 78.045914 6.146120 20.289959 64.417770 -10.169422 13.350588 -7.001954 -15.996095 24.814455 -4.685727 8.610547 -3.635865 23.463577 -5.293076 -1.653636 -35.034660 5.377391 5.220530 -2.411820 -22.318928 -3.020798 3.503795 5.034273 -0.024802 -5.296210 0.785160 0.756104 
-1.781897 53.463673 17.411730 3.255641 -0.742506 -3.622317 2.907415 -1.935570 2.209340 -10.324518 1.034024 0.644156 -13.296246 -1.929426 -1.894771 33.313385 5.843577 -2.767443 -1.896031 -0.900906 0.061420 -77.044960 -17.359030 25.445604 -60.717396 9.905842 11.692406 6.992188 16.005859 -55.817619 5.164488 -1.441709 -0.481386 78.032280 6.184010 20.300106 64.408455 -10.172802 13.348864 -7.001954 -15.996095 24.794924 -4.693114 8.606769 -3.656075 23.463577 -5.293074 -1.653636 -35.032516 5.394398 5.221606 -2.411820 -22.318930 -3.020799 3.503795 5.034273 -0.024802 -5.296212 0.785162 0.756104 
